<svg xmlns="http://www.w3.org/2000/svg" xmlns:xlink="http://www.w3.org/1999/xlink" width="325" height="96.306" viewBox="0 0 325 96.306"><defs><style>.a{fill:#a6a6a6;}.b,.i{fill:#fff;}.c{fill:url(#a);}.d{fill:url(#b);}.e{fill:url(#c);}.f{fill:url(#d);}.g{opacity:0.2;}.h{opacity:0.12;}.i{opacity:0.25;}</style><linearGradient id="a" x1="0.903" y1="0.057" x2="-0.386" y2="0.73" gradientUnits="objectBoundingBox"><stop offset="0" stop-color="#00a0ff"/><stop offset="0.01" stop-color="#00a1ff"/><stop offset="0.26" stop-color="#00beff"/><stop offset="0.51" stop-color="#00d2ff"/><stop offset="0.76" stop-color="#00dfff"/><stop offset="1" stop-color="#00e3ff"/></linearGradient><linearGradient id="b" x1="1.072" y1="0.524" x2="-1.309" y2="0.524" gradientUnits="objectBoundingBox"><stop offset="0" stop-color="#ffe000"/><stop offset="0.41" stop-color="#ffbd00"/><stop offset="0.78" stop-color="orange"/><stop offset="1" stop-color="#ff9c00"/></linearGradient><linearGradient id="c" x1="0.861" y1="0.194" x2="-0.503" y2="1.959" gradientUnits="objectBoundingBox"><stop offset="0" stop-color="#ff3a44"/><stop offset="1" stop-color="#c31162"/></linearGradient><linearGradient id="d" x1="-0.189" y1="-0.524" x2="0.418" y2="0.267" gradientUnits="objectBoundingBox"><stop offset="0" stop-color="#32a071"/><stop offset="0.07" stop-color="#2da771"/><stop offset="0.48" stop-color="#15cf74"/><stop offset="0.8" stop-color="#06e775"/><stop offset="1" stop-color="#00f076"/></linearGradient></defs><path d="M313.743,96.074H12.807A11.923,11.923,0,0,1,.76,84.035V11.809A11.923,11.923,0,0,1,12.8-.23H313.735a11.923,11.923,0,0,1,12.024,12.039V84.035a11.923,11.923,0,0,1-12.016,12.039Z" transform="translate(-0.759 0.231)"/><path class="a" d="M313.743,1.7a10.171,10.171,0,0,1,10.078,10.078V84a10.179,10.179,0,0,1-10.078,10.078H12.807A10.179,10.179,0,0,1,2.729,84v-72.2A10.171,10.171,0,0,1,12.845,1.731h300.9m0-1.938H12.807A12.078,12.078,0,0,0,.76,11.809V84.035A11.923,11.923,0,0,0,12.8,96.074H313.735a11.923,11.923,0,0,0,12.016-12.039V11.809A12.078,12.078,0,0,0,313.743-.23Z" transform="translate(-0.759 0.231)"/><path class="b" d="M143.583,29.137a6.535,6.535,0,0,1-1.69,4.814,7.488,7.488,0,1,1-5.287-12.76,6.426,6.426,0,0,1,2.891.721,5.247,5.247,0,0,1,2.163,1.69l-1.2,1.2a4.488,4.488,0,0,0-3.876-1.682,4.8,4.8,0,0,0-3.876,1.682,4.969,4.969,0,0,0-1.682,4.093,4.969,4.969,0,0,0,1.706,4.093,6.2,6.2,0,0,0,3.876,1.682,5.279,5.279,0,0,0,4.093-1.682,3.985,3.985,0,0,0,1.2-2.892h-5.295V28.16h6.977v.961Zm11.047-6.008h-6.5V27.7h6.015v1.682h-6.015v4.574h6.5V35.9H146.2V21.423h8.427v1.69Zm7.946,12.752h-1.922V23.129H156.56V21.423h10.109v1.69h-4.093v12.76Zm11.086-14.458h1.923V35.865h-1.923Zm10.1,14.458H181.84V23.129h-4.093V21.423h9.868v1.69h-4.093v12.76h.233Zm22.877-12.52a7.756,7.756,0,1,0,2.163,5.295A7.07,7.07,0,0,0,206.638,23.361Zm-1.45,9.38a4.783,4.783,0,0,1-3.876,1.682,5.674,5.674,0,0,1-3.876-1.682,4.946,4.946,0,0,1-1.69-4.093,5.791,5.791,0,0,1,1.69-4.093,4.783,4.783,0,0,1,3.876-1.682,5.675,5.675,0,0,1,3.876,1.682,4.947,4.947,0,0,1,1.69,4.093,5.792,5.792,0,0,1-1.69,4.093Zm6.264,3.14V21.423h2.171L220.6,32.741V21.423h1.938v14.45H220.6l-7.465-11.8v11.8h-1.682ZM193.39,57.067a10.132,10.132,0,0,0-10.357,10.349A10.279,10.279,0,0,0,193.39,77.773a10.132,10.132,0,0,0,10.349-10.357A9.986,9.986,0,0,0,193.39,57.067Zm0,16.372a6.279,6.279,0,0,1,0-12.52c3.132,0,5.775,2.4,5.775,6.256A5.98,5.98,0,0,1,193.39,73.44Zm-22.4-16.372a10.124,10.124,0,0,0-10.349,10.349,10.28,10.28,0,0,0,10.349,10.357,10.132,10.132,0,0,0,10.357-10.357A9.967,9.967,0,0,0,171,57.067Zm0,16.372a6.28,6.28,0,0,1,0-12.52c3.124,0,5.783,2.4,5.783,6.256A5.982,5.982,0,0,1,170.987,73.44ZM144.281,60.184v4.341H154.63a9.132,9.132,0,0,1-2.4,5.543,10.667,10.667,0,0,1-7.946,3.1,11.2,11.2,0,0,1-11.318-11.551,11.357,11.357,0,0,1,11.318-11.558,11.923,11.923,0,0,1,7.946,3.1l3.1-3.1a15.427,15.427,0,0,0-10.853-4.333A16.237,16.237,0,0,0,128.35,61.618a16.275,16.275,0,0,0,16.163,15.907c4.806,0,8.186-1.442,11.085-4.574a14.508,14.508,0,0,0,3.876-10.078,8.816,8.816,0,0,0-.248-2.651Zm109.3,3.372c-.961-2.4-3.372-6.5-8.667-6.5s-9.636,4.093-9.636,10.349A10.078,10.078,0,0,0,245.36,77.765a9.868,9.868,0,0,0,8.427-4.581l-3.372-2.4a5.877,5.877,0,0,1-5.054,2.892,5.229,5.229,0,0,1-5.054-3.1l13.721-5.783-.481-1.2Zm-13.954,3.372a5.807,5.807,0,0,1,5.295-6.016,4.32,4.32,0,0,1,3.876,2.171l-9.147,3.876ZM228.313,76.8h4.574V46.718h-4.574ZM221.1,59.23a7.93,7.93,0,0,0-5.535-2.4c-5.054,0-9.876,4.574-9.876,10.349a9.977,9.977,0,0,0,9.876,10.078,6.915,6.915,0,0,0,5.295-2.4h.233v1.442c0,3.876-2.171,6.023-5.535,6.023a5.349,5.349,0,0,1-5.054-3.612l-3.876,1.682a9.93,9.93,0,0,0,9.147,6.023c5.295,0,9.628-3.1,9.628-10.6V57.548h-4.3Zm-5.318,14.21a6.28,6.28,0,0,1,0-12.52c3.14,0,5.535,2.636,5.535,6.256S218.918,73.44,215.786,73.44Zm58.745-26.729H263.678V76.8h4.574V65.486h6.264c5.054,0,9.868-3.612,9.868-9.4s-4.806-9.38-9.845-9.38Zm.233,14.45h-6.512V50.8h6.512a5.287,5.287,0,0,1,5.295,5.054A5.509,5.509,0,0,1,274.764,61.16Zm27.675-4.341c-3.364,0-6.744,1.442-7.938,4.574l4.108,1.682a4.264,4.264,0,0,1,4.093-2.163c2.4,0,4.574,1.442,4.822,3.876v.248a9.5,9.5,0,0,0-4.581-1.209c-4.341,0-8.667,2.4-8.667,6.744,0,4.093,3.612,6.744,7.465,6.744a6.791,6.791,0,0,0,5.783-2.884h.233v2.4H312.1V65.223c-.481-5.3-4.574-8.427-9.636-8.427Zm-.481,16.613c-1.442,0-3.612-.729-3.612-2.651,0-2.4,2.651-3.1,4.822-3.1a9.358,9.358,0,0,1,4.093.961A5.62,5.62,0,0,1,301.958,73.432ZM327.23,57.54l-5.054,13h-.233l-5.295-13h-4.806l7.938,18.295-4.574,10.078h4.574L332.06,57.54ZM286.787,76.8h4.574V46.718h-4.574Z" transform="translate(-29.44 -4.577)"/><path class="c" d="M32.778,23.06a4.744,4.744,0,0,0-.969,3.372v53.21a4.791,4.791,0,0,0,1.209,3.372l.233.233L63.1,53.4v-.481Z" transform="translate(-7.738 -5.005)"/><path class="d" d="M81.741,69.306,71.88,59.429v-.721l9.861-9.868.233.233,11.8,6.744c3.372,1.923,3.372,5.054,0,6.977Z" transform="translate(-16.747 -10.8)"/><path class="e" d="M73.262,72.008,63.185,61.93,33.06,91.993c1.2,1.2,2.884,1.2,5.054.233L73.262,71.992" transform="translate(-8.02 -13.742)"/><path class="f" d="M73.262,42.816,38.114,22.831c-2.171-1.2-3.876-.961-5.054.248L63.154,52.925,73.231,42.847Z" transform="translate(-8.02 -4.776)"/><path class="g" d="M73.023,74.62,38.139,94.365c-1.938,1.2-3.612.961-4.806,0L33.1,94.6l.233.233a3.93,3.93,0,0,0,4.806,0Z" transform="translate(-8.029 -16.595)"/><path class="h" d="M32.778,91.511a4.744,4.744,0,0,1-.969-3.372v.233a4.791,4.791,0,0,0,1.209,3.372v-.233Zm52-26.489L72.74,71.766l.233.233,11.8-6.744c1.682-.961,2.4-2.171,2.4-3.364,0,1.2-.969,2.171-2.4,3.124Z" transform="translate(-7.738 -13.733)"/><path class="i" d="M37.833,23.062,84.78,49.784c1.442.961,2.4,1.923,2.4,3.1,0-1.209-.729-2.4-2.4-3.372l-46.947-26.7c-3.372-1.923-6.023-.481-6.023,3.372v.233c0-3.612,2.651-5.295,6.023-3.364Z" transform="translate(-7.739 -4.759)"/></svg>